<?xml version="1.0" standalone="no"?>
<!DOCTYPE svg PUBLIC "-//W3C//DTD SVG 20010904//EN"
 "http://www.w3.org/TR/2001/REC-SVG-20010904/DTD/svg10.dtd">
<svg version="1.0" xmlns="http://www.w3.org/2000/svg"
 width="260.000000pt" height="260.000000pt" viewBox="0 0 260.000000 260.000000"
 preserveAspectRatio="xMidYMid meet">
<metadata>
Created by potrace 1.14, written by Peter Selinger 2001-2017
</metadata>
<g transform="translate(0.000000,260.000000) scale(0.100000,-0.100000)"
fill="#000000" stroke="none">
<path d="M603 2094 c-39 -17 -394 -367 -416 -410 -38 -73 -27 -170 25 -230 63
-72 164 -96 244 -58 42 20 395 367 417 411 54 103 9 232 -100 287 -39 20 -126
20 -170 0z"/>
<path d="M1421 1948 c-24 -4 -55 -15 -68 -24 -53 -34 -695 -687 -709 -720 -19
-45 -18 -128 2 -167 21 -42 62 -85 99 -105 41 -21 141 -21 183 1 17 10 183
168 368 353 236 235 341 347 354 377 69 151 -62 315 -229 285z"/>
<path d="M2161 1782 c-37 -12 -119 -90 -537 -508 -271 -271 -500 -507 -509
-525 -22 -41 -26 -116 -10 -164 37 -106 173 -165 279 -121 21 9 224 204 533
513 420 420 500 505 511 540 51 172 -99 322 -267 265z"/>
</g>
</svg>
