<?xml version="1.0" standalone="no"?>
<!DOCTYPE svg PUBLIC "-//W3C//DTD SVG 20010904//EN"
 "http://www.w3.org/TR/2001/REC-SVG-20010904/DTD/svg10.dtd">
<svg version="1.0" xmlns="http://www.w3.org/2000/svg"
 width="99.000000pt" height="99.000000pt" viewBox="0 0 99.000000 99.000000"
 preserveAspectRatio="xMidYMid meet">
<metadata>
Created by potrace 1.11, written by Peter Selinger 2001-2013
</metadata>
<g transform="translate(0.000000,99.000000) scale(0.100000,-0.100000)"
fill="#000000" stroke="none">
<path d="M63 982 c-53 -8 -53 -11 -53 -489 0 -430 1 -444 20 -463 19 -19 33
-20 465 -20 432 0 446 1 465 20 19 19 20 34 20 208 1 185 1 490 0 628 0 55 -4
77 -19 95 l-18 23 -429 0 c-236 1 -439 0 -451 -2z"/>
</g>
</svg>
