<svg xmlns="http://www.w3.org/2000/svg" xmlns:xlink="http://www.w3.org/1999/xlink" width="900" height="650" viewBox="0 0 900 650"><defs><style>.a{fill:#a1caef;}.b{fill:#fff;}.c,.d,.f{fill:#1e1e1e;}.c{font-size:20px;font-family:SFProDisplay-Semibold, SF Pro Display;font-weight:600;}.d{font-size:15px;}.d,.f{font-family:SFProDisplay-Medium, SF Pro Display;font-weight:500;}.e{fill:#f1f1f1;}.f{font-size:14px;}.g{fill:none;stroke:#707070;}.h{filter:url(#a);}</style><filter id="a" x="126" y="29" width="649" height="612" filterUnits="userSpaceOnUse"><feOffset dy="10" input="SourceAlpha"/><feGaussianBlur stdDeviation="8" result="b"/><feFlood flood-opacity="0.302"/><feComposite operator="in" in2="b"/><feComposite in="SourceGraphic"/></filter></defs><g transform="translate(-233 -7265)"><g transform="translate(2 815)"><rect class="a" width="900" height="650" transform="translate(231 6450)"/></g><g transform="translate(-6344 7025)"><g class="h" transform="matrix(1, 0, 0, 1, 6577, 240)"><rect class="b" width="601" height="564" transform="translate(150 43)"/></g><text class="c" transform="translate(6779 337)"><tspan x="0" y="0">Basic Flow</tspan></text><g transform="translate(6778.865 378.818)"><text class="d" transform="translate(0.135 14.181)"><tspan x="0" y="0">1</tspan></text><text class="d" transform="translate(69.135 14.181)"><tspan x="0" y="0">User inputs the username</tspan></text></g><rect class="e" width="532" height="52" transform="translate(6762 410)"/><rect class="e" width="532" height="52" transform="translate(6762 505)"/><rect class="e" width="532" height="53" transform="translate(6762 756)"/><rect class="e" width="532" height="76" transform="translate(6762 636)"/><g transform="translate(6778.865 426.288)"><text class="d" transform="translate(0.135 13.712)"><tspan x="0" y="0">2</tspan></text><text class="d" transform="translate(69.135 13.712)"><tspan x="0" y="0">User inputs the device intended to monitor</tspan></text></g><g transform="translate(6778.865 473.758)"><text class="d" transform="translate(0.135 14.242)"><tspan x="0" y="0">3</tspan></text><text class="f" transform="translate(69.135 13.242)"><tspan x="0" y="0">User chooses the time period</tspan></text></g><g transform="translate(6778.865 521.227)"><text class="d" transform="translate(0.135 13.773)"><tspan x="0" y="0">4</tspan></text><text class="f" transform="translate(69.135 12.773)"><tspan x="0" y="0">The latest data update is shown</tspan></text></g><g transform="translate(6778.865 568.697)"><text class="d" transform="translate(0.135 14.303)"><tspan x="0" y="0">5</tspan></text><text class="f" transform="translate(69.135 13.303)"><tspan x="0" y="0">User notes the temperature, humidity, wind speed, battery,</tspan><tspan x="0" y="28">wind, light intensity, and rain fall intensity</tspan></text></g><g transform="translate(6778.865 646.934)"><text class="d" transform="translate(0.135 14.066)"><tspan x="0" y="0">6</tspan></text><text class="f" transform="translate(69.135 13.066)"><tspan x="0" y="0">User chooses each composition such as NO2, CO, SO2,</tspan><tspan x="0" y="28">03, and PM10</tspan></text></g><g transform="translate(6778.865 725.171)"><text class="d" transform="translate(0.135 13.829)"><tspan x="0" y="0">7</tspan></text><text class="f" transform="translate(69.135 12.829)"><tspan x="0" y="0">Each composition graph is shown</tspan></text></g><g transform="translate(6778.865 772.641)"><text class="d" transform="translate(0.135 14.359)"><tspan x="0" y="0">8</tspan></text><text class="f" transform="translate(69.135 13.359)"><tspan x="0" y="0">User downloads the data for further analysis</tspan></text></g><line class="g" x2="532.559" transform="translate(6761.536 357.558)"/></g></g></svg>