<svg xmlns="http://www.w3.org/2000/svg" xmlns:xlink="http://www.w3.org/1999/xlink" width="900" height="650" viewBox="0 0 900 650"><defs><style>.a{fill:#a1caef;}.b{fill:#fff;}.c,.d,.e,.f{fill:#1e1e1e;}.c{font-size:14px;}.c,.d{font-family:SFProDisplay-Semibold, SF Pro Display;font-weight:600;}.d,.e{font-size:11px;}.e,.f{font-family:SFProDisplay-Medium, SF Pro Display;font-weight:500;}.f{font-size:10px;}.g{fill:none;stroke:#707070;}.h{filter:url(#a);}</style><filter id="a" x="121" y="50" width="658" height="570" filterUnits="userSpaceOnUse"><feOffset dy="10" input="SourceAlpha"/><feGaussianBlur stdDeviation="8" result="b"/><feFlood flood-opacity="0.302"/><feComposite operator="in" in2="b"/><feComposite in="SourceGraphic"/></filter></defs><g transform="translate(-233 -1282)"><rect class="a" width="900" height="650" transform="translate(233 1282)"/><g transform="translate(-5804 -41)"><g class="h" transform="matrix(1, 0, 0, 1, 6037, 1323)"><rect class="b" width="610" height="522" transform="translate(145 64)"/></g><text class="c" transform="translate(6239 1464)"><tspan x="0" y="0">Local Nav</tspan></text><text class="d" transform="translate(6367 1464)"><tspan x="0" y="0">Summary</tspan></text><text class="d" transform="translate(6505 1464)"><tspan x="0" y="0">Dashboard</tspan></text><text class="d" transform="translate(6637 1464)"><tspan x="0" y="0">Users</tspan></text><g transform="translate(6637.054 1502.108)"><text class="e" transform="translate(-0.054 9.892)"><tspan x="0" y="0">Email</tspan></text><text class="e" transform="translate(-0.054 31.892)"><tspan x="0" y="0">Status</tspan></text><text class="e" transform="translate(-0.054 54.892)"><tspan x="0" y="0">Create date</tspan></text><text class="e" transform="translate(-0.054 76.892)"><tspan x="0" y="0">ID</tspan></text></g><g transform="translate(6505.015 1502.108)"><text class="e" transform="translate(-0.016 9.892)"><tspan x="0" y="0">User name</tspan></text><text class="f" transform="translate(-0.016 31.892)"><tspan x="0" y="0">Device</tspan></text><text class="e" transform="translate(-0.016 54.892)"><tspan x="0" y="0" xml:space="preserve">Time  period</tspan></text><text class="e" transform="translate(-0.016 76.892)"><tspan x="0" y="0">Temperature</tspan></text><text class="e" transform="translate(-0.016 99.892)"><tspan x="0" y="0">Humidity</tspan></text><text class="f" transform="translate(-0.016 121.892)"><tspan x="0" y="0">Wind speed</tspan></text><text class="e" transform="translate(-0.016 143.892)"><tspan x="0" y="0">Battery</tspan></text><text class="e" transform="translate(-0.016 166.892)"><tspan x="0" y="0">Wind direction</tspan></text><text class="f" transform="translate(-0.016 188.892)"><tspan x="0" y="0">Light intensity</tspan></text><text class="e" transform="translate(-0.016 211.892)"><tspan x="0" y="0">Rain fall</tspan></text><text class="e" transform="translate(-0.016 233.892)"><tspan x="0" y="0">Concentration</tspan></text><text class="e" transform="translate(-0.016 255.892)"><tspan x="0" y="0">ISPU details</tspan></text><text class="e" transform="translate(-0.016 278.892)"><tspan x="0" y="0">Download</tspan></text></g><g transform="translate(6367.037 1502.108)"><text class="f" transform="translate(-0.037 9.892)"><tspan x="0" y="0">Map device</tspan></text><text class="e" transform="translate(-0.037 31.892)"><tspan x="0" y="0">Temperature</tspan></text><text class="e" transform="translate(-0.037 54.892)"><tspan x="0" y="0">Relative humidty</tspan></text><text class="e" transform="translate(-0.037 76.892)"><tspan x="0" y="0">Air flow rate</tspan></text><text class="e" transform="translate(-0.037 99.892)"><tspan x="0" y="0">Vehicle speed</tspan></text><text class="e" transform="translate(-0.037 121.892)"><tspan x="0" y="0">Altitude</tspan></text><text class="f" transform="translate(-0.037 143.892)"><tspan x="0" y="0">Wind speed</tspan></text><text class="e" transform="translate(-0.037 166.892)"><tspan x="0" y="0">Battery</tspan></text><text class="e" transform="translate(-0.037 188.892)"><tspan x="0" y="0">Wind direction</tspan></text><text class="f" transform="translate(-0.037 211.892)"><tspan x="0" y="0">Light intensity</tspan></text><text class="e" transform="translate(-0.037 233.892)"><tspan x="0" y="0">Rain fall</tspan></text><text class="e" transform="translate(-0.037 255.892)"><tspan x="0" y="0">Concentration</tspan></text><text class="e" transform="translate(-0.037 278.892)"><tspan x="0" y="0">Device details</tspan></text></g><text class="c" transform="translate(6239 1515)"><tspan x="0" y="0">Contents</tspan></text><line class="g" y2="398.518" transform="translate(6335.284 1443.882)"/><line class="g" y2="399.431" transform="translate(6473.262 1443.882)"/><line class="g" y2="399.888" transform="translate(6605.3 1443.882)"/><line class="g" x1="499.828" transform="translate(6238.882 1479.406)"/></g></g></svg>