<svg width="48" height="48" viewBox="0 0 48 48" fill="none" xmlns="http://www.w3.org/2000/svg">
<path d="M42.8546 5.15269C41.8546 4.13069 40.3746 3.75269 38.9946 4.15269L6.81459 13.4507C5.3586 13.8547 4.3266 15.0087 4.0486 16.4727C3.7646 17.9647 4.7566 19.8607 6.0526 20.6527L16.1146 26.7967C17.1466 27.4287 18.4786 27.2707 19.3326 26.4147L30.8546 14.8927C31.4346 14.2907 32.3946 14.2907 32.9746 14.8927C33.5546 15.4707 33.5546 16.4127 32.9746 17.0127L21.4326 28.5347C20.5766 29.3907 20.4166 30.7187 21.0466 31.7527L27.1946 41.8527C27.9146 43.0507 29.1546 43.7327 30.5146 43.7327C30.6746 43.7327 30.8546 43.7327 31.0146 43.7107C32.5746 43.5127 33.8146 42.4507 34.2746 40.9507L43.8146 9.01269C44.2346 7.65269 43.8546 6.17269 42.8546 5.15269Z" fill="#4E3ACC"/>
<path opacity="0.4" fill-rule="evenodd" clip-rule="evenodd" d="M6.02074 33.6089C5.63674 33.6089 5.25274 33.4629 4.96074 33.1689C4.37474 32.5829 4.37474 31.6349 4.96074 31.0489L7.69074 28.3169C8.27674 27.7329 9.22674 27.7329 9.81274 28.3169C10.3967 28.9029 10.3967 29.8529 9.81274 30.4389L7.08074 33.1689C6.78874 33.4629 6.40474 33.6089 6.02074 33.6089ZM13.5431 35.988C13.1591 35.988 12.7751 35.842 12.4831 35.548C11.8971 34.962 11.8971 34.014 12.4831 33.428L15.2131 30.696C15.7991 30.112 16.7491 30.112 17.3351 30.696C17.9191 31.282 17.9191 32.232 17.3351 32.818L14.6031 35.548C14.3111 35.842 13.9271 35.988 13.5431 35.988ZM14.0505 43.1297C14.3425 43.4237 14.7265 43.5697 15.1105 43.5697C15.4945 43.5697 15.8785 43.4237 16.1705 43.1297L18.9025 40.3998C19.4865 39.8138 19.4865 38.8638 18.9025 38.2778C18.3165 37.6938 17.3665 37.6938 16.7805 38.2778L14.0505 41.0097C13.4645 41.5957 13.4645 42.5437 14.0505 43.1297Z" fill="#4E3ACC"/>
</svg>
