<svg width="96" height="96" viewBox="0 0 96 96" fill="none" xmlns="http://www.w3.org/2000/svg">
<rect width="96" height="96" rx="48" fill="#F4F5F7"/>
<path d="M67.3546 29.1527C66.3546 28.1307 64.8746 27.7527 63.4946 28.1527L31.3146 37.4507C29.8586 37.8547 28.8266 39.0087 28.5486 40.4727C28.2646 41.9647 29.2566 43.8607 30.5526 44.6527L40.6146 50.7967C41.6466 51.4287 42.9786 51.2707 43.8326 50.4147L55.3546 38.8927C55.9346 38.2907 56.8946 38.2907 57.4746 38.8927C58.0546 39.4707 58.0546 40.4127 57.4746 41.0127L45.9326 52.5347C45.0766 53.3907 44.9166 54.7187 45.5466 55.7527L51.6946 65.8527C52.4146 67.0507 53.6546 67.7327 55.0146 67.7327C55.1746 67.7327 55.3546 67.7327 55.5146 67.7107C57.0746 67.5127 58.3146 66.4507 58.7746 64.9507L68.3146 33.0127C68.7346 31.6527 68.3546 30.1727 67.3546 29.1527" fill="#4E3ACC"/>
<path opacity="0.4" fill-rule="evenodd" clip-rule="evenodd" d="M30.5207 57.6094C30.1367 57.6094 29.7527 57.4634 29.4607 57.1694C28.8747 56.5834 28.8747 55.6354 29.4607 55.0494L32.1907 52.3174C32.7767 51.7334 33.7267 51.7334 34.3127 52.3174C34.8967 52.9034 34.8967 53.8534 34.3127 54.4394L31.5807 57.1694C31.2887 57.4634 30.9047 57.6094 30.5207 57.6094ZM38.0431 59.9885C37.6591 59.9885 37.2751 59.8425 36.9831 59.5485C36.3971 58.9625 36.3971 58.0145 36.9831 57.4285L39.7131 54.6965C40.2991 54.1125 41.2491 54.1125 41.8351 54.6965C42.4191 55.2825 42.4191 56.2325 41.8351 56.8185L39.1031 59.5485C38.8111 59.8425 38.4271 59.9885 38.0431 59.9885ZM38.5505 67.1302C38.8425 67.4242 39.2265 67.5702 39.6105 67.5702C39.9945 67.5702 40.3785 67.4242 40.6705 67.1302L43.4025 64.4002C43.9865 63.8142 43.9865 62.8643 43.4025 62.2783C42.8165 61.6943 41.8665 61.6943 41.2805 62.2783L38.5505 65.0102C37.9645 65.5962 37.9645 66.5442 38.5505 67.1302Z" fill="#4E3ACC"/>
</svg>
