<svg width="81" height="80" viewBox="0 0 81 80" fill="none" xmlns="http://www.w3.org/2000/svg">
<rect x="0.5" width="80" height="80" rx="40" fill="white"/>
<path d="M53.57 27.4376C52.9033 26.7562 51.9166 26.5042 50.9966 26.7709L29.5433 32.9696C28.5726 33.2389 27.8846 34.0082 27.6993 34.9842C27.51 35.9789 28.1713 37.2429 29.0353 37.7709L35.7433 41.8669C36.4313 42.2882 37.3193 42.1829 37.8886 41.6122L45.57 33.9309C45.9566 33.5296 46.5966 33.5296 46.9833 33.9309C47.37 34.3162 47.37 34.9442 46.9833 35.3442L39.2886 43.0256C38.718 43.5962 38.6113 44.4816 39.0313 45.1709L43.13 51.9042C43.61 52.7029 44.4366 53.1576 45.3433 53.1576C45.45 53.1576 45.57 53.1576 45.6766 53.1429C46.7166 53.0109 47.5433 52.3029 47.85 51.3029L54.21 30.0109C54.49 29.1042 54.2366 28.1176 53.57 27.4376" fill="#2B42D4"/>
<path opacity="0.4" fill-rule="evenodd" clip-rule="evenodd" d="M29.0141 46.4103C28.7581 46.4103 28.5021 46.313 28.3074 46.117C27.9167 45.7263 27.9167 45.0943 28.3074 44.7037L30.1274 42.8823C30.5181 42.493 31.1514 42.493 31.5421 42.8823C31.9314 43.273 31.9314 43.9063 31.5421 44.297L29.7207 46.117C29.5261 46.313 29.2701 46.4103 29.0141 46.4103ZM34.029 48.0002C33.773 48.0002 33.517 47.9029 33.3223 47.7069C32.9317 47.3162 32.9317 46.6842 33.3223 46.2935L35.1423 44.4722C35.533 44.0829 36.1663 44.0829 36.557 44.4722C36.9463 44.8629 36.9463 45.4962 36.557 45.8869L34.7357 47.7069C34.541 47.9029 34.285 48.0002 34.029 48.0002ZM34.3673 52.7576C34.5619 52.9536 34.8179 53.0509 35.0739 53.0509C35.3299 53.0509 35.5859 52.9536 35.7806 52.7576L37.6019 50.9376C37.9913 50.5469 37.9913 49.9136 37.6019 49.5229C37.2113 49.1336 36.5779 49.1336 36.1873 49.5229L34.3673 51.3442C33.9766 51.7349 33.9766 52.3669 34.3673 52.7576Z" fill="#2B42D4"/>
</svg>
