<svg width="96" height="96" viewBox="0 0 96 96" fill="none" xmlns="http://www.w3.org/2000/svg">
<rect width="96" height="96" rx="48" fill="#F4F5F7"/>
<path opacity="0.4" d="M56.651 27.9961H63.423C66.2275 27.9961 68.5 30.2878 68.5 33.116V39.9451C68.5 42.7734 66.2275 45.0651 63.423 45.0651H56.651C53.8465 45.0651 51.574 42.7734 51.574 39.9451V33.116C51.574 30.2878 53.8465 27.9961 56.651 27.9961" fill="#4E3ACC"/>
<path fill-rule="evenodd" clip-rule="evenodd" d="M33.5768 27.9961H40.3487C43.1533 27.9961 45.4258 30.2878 45.4258 33.116V39.9451C45.4258 42.7734 43.1533 45.0651 40.3487 45.0651H33.5768C30.7723 45.0651 28.4998 42.7734 28.4998 39.9451V33.116C28.4998 30.2878 30.7723 27.9961 33.5768 27.9961ZM33.5768 50.9295H40.3487C43.1533 50.9295 45.4258 53.2212 45.4258 56.0494V62.8786C45.4258 65.7049 43.1533 67.9985 40.3487 67.9985H33.5768C30.7723 67.9985 28.4998 65.7049 28.4998 62.8786V56.0494C28.4998 53.2212 30.7723 50.9295 33.5768 50.9295ZM63.423 50.9295H56.651C53.8465 50.9295 51.574 53.2212 51.574 56.0494V62.8786C51.574 65.7049 53.8465 67.9985 56.651 67.9985H63.423C66.2275 67.9985 68.5 65.7049 68.5 62.8786V56.0494C68.5 53.2212 66.2275 50.9295 63.423 50.9295Z" fill="#4E3ACC"/>
</svg>
