<svg width="48" height="48" viewBox="0 0 48 48" fill="none" xmlns="http://www.w3.org/2000/svg">
<path opacity="0.4" d="M32.151 3.99609H38.923C41.7275 3.99609 44 6.2878 44 9.11602V15.9451C44 18.7734 41.7275 21.0651 38.923 21.0651H32.151C29.3465 21.0651 27.074 18.7734 27.074 15.9451V9.11602C27.074 6.2878 29.3465 3.99609 32.151 3.99609Z" fill="#4E3ACC"/>
<path fill-rule="evenodd" clip-rule="evenodd" d="M9.07681 3.99609H15.8487C18.6533 3.99609 20.9258 6.2878 20.9258 9.11602V15.9451C20.9258 18.7734 18.6533 21.0651 15.8487 21.0651H9.07681C6.27227 21.0651 3.99976 18.7734 3.99976 15.9451V9.11602C3.99976 6.2878 6.27227 3.99609 9.07681 3.99609ZM9.07681 26.9295H15.8487C18.6533 26.9295 20.9258 29.2212 20.9258 32.0494V38.8786C20.9258 41.7049 18.6533 43.9985 15.8487 43.9985H9.07681C6.27227 43.9985 3.99976 41.7049 3.99976 38.8786V32.0494C3.99976 29.2212 6.27227 26.9295 9.07681 26.9295ZM38.923 26.9295H32.151C29.3465 26.9295 27.074 29.2212 27.074 32.0494V38.8786C27.074 41.7049 29.3465 43.9985 32.151 43.9985H38.923C41.7275 43.9985 44 41.7049 44 38.8786V32.0494C44 29.2212 41.7275 26.9295 38.923 26.9295Z" fill="#4E3ACC"/>
</svg>
