<svg width="81" height="80" viewBox="0 0 81 80" fill="none" xmlns="http://www.w3.org/2000/svg">
<rect x="0.5" width="80" height="80" rx="40" fill="white"/>
<path opacity="0.4" d="M46.434 26.6665H50.9486C52.8183 26.6665 54.3333 28.1943 54.3333 30.0798V34.6325C54.3333 36.518 52.8183 38.0458 50.9486 38.0458H46.434C44.5643 38.0458 43.0493 36.518 43.0493 34.6325V30.0798C43.0493 28.1943 44.5643 26.6665 46.434 26.6665" fill="#171949"/>
<path fill-rule="evenodd" clip-rule="evenodd" d="M31.0514 26.6665H35.5661C37.4358 26.6665 38.9508 28.1943 38.9508 30.0798V34.6325C38.9508 36.518 37.4358 38.0458 35.5661 38.0458H31.0514C29.1818 38.0458 27.6667 36.518 27.6667 34.6325V30.0798C27.6667 28.1943 29.1818 26.6665 31.0514 26.6665ZM31.0514 41.9539H35.5661C37.4358 41.9539 38.9508 43.4817 38.9508 45.3672V49.9199C38.9508 51.8041 37.4358 53.3332 35.5661 53.3332H31.0514C29.1818 53.3332 27.6667 51.8041 27.6667 49.9199V45.3672C27.6667 43.4817 29.1818 41.9539 31.0514 41.9539ZM50.9487 41.9539H46.4341C44.5644 41.9539 43.0494 43.4817 43.0494 45.3672V49.9199C43.0494 51.8041 44.5644 53.3332 46.4341 53.3332H50.9487C52.8184 53.3332 54.3334 51.8041 54.3334 49.9199V45.3672C54.3334 43.4817 52.8184 41.9539 50.9487 41.9539Z" fill="#171949"/>
</svg>
