<svg xmlns="http://www.w3.org/2000/svg" width="24" height="23" viewBox="0 0 24 23"><defs><style>.a{fill:#fff;}</style></defs><path class="a" d="M12,0A11.758,11.758,0,0,0,0,11.5,11.758,11.758,0,0,0,12,23,11.758,11.758,0,0,0,24,11.5,11.758,11.758,0,0,0,12,0Zm9.885,10.964a22.323,22.323,0,0,0-7.1-.07c-.244-.54-.5-1.078-.767-1.61a14.134,14.134,0,0,0,5.548-3.912A9.24,9.24,0,0,1,21.885,10.964ZM18.043,3.986a12.11,12.11,0,0,1-4.986,3.527A44.173,44.173,0,0,0,9.569,2.3,10.3,10.3,0,0,1,12,2a10.136,10.136,0,0,1,6.043,1.986ZM7.527,3.034a42.61,42.61,0,0,1,3.537,5.157A33.106,33.106,0,0,1,2.38,9.25,9.6,9.6,0,0,1,7.527,3.034ZM2.087,11.5l.013-.245a34.9,34.9,0,0,0,9.95-1.267q.349.683.67,1.372a15.374,15.374,0,0,0-8.337,6.21,9.221,9.221,0,0,1-2.3-6.07Zm3.829,7.485a13.4,13.4,0,0,1,7.6-5.776,36.285,36.285,0,0,1,2.043,7.149,10.17,10.17,0,0,1-9.641-1.373ZM17.5,19.4a38.112,38.112,0,0,0-1.92-6.61,20.822,20.822,0,0,1,6.2.188A9.482,9.482,0,0,1,17.5,19.4Z"/></svg>