<svg xmlns="http://www.w3.org/2000/svg" width="24" height="24" viewBox="0 0 24 24"><defs><style>.a{fill:#1e1e1e;}</style></defs><path class="a" d="M12,0A12,12,0,1,0,24,12,12,12,0,0,0,12,0Zm9.885,11.441a21.4,21.4,0,0,0-7.1-.073c-.244-.563-.5-1.125-.767-1.68a14.16,14.16,0,0,0,5.548-4.082A9.863,9.863,0,0,1,21.885,11.441ZM18.043,4.159a12.135,12.135,0,0,1-4.986,3.68A46.287,46.287,0,0,0,9.569,2.4a9.771,9.771,0,0,1,8.474,1.758ZM7.527,3.166a44.591,44.591,0,0,1,3.537,5.381A31.8,31.8,0,0,1,2.38,9.652,9.931,9.931,0,0,1,7.527,3.166ZM2.087,12l.013-.256a33.536,33.536,0,0,0,9.95-1.322q.349.713.67,1.432a15.445,15.445,0,0,0-8.337,6.48A9.865,9.865,0,0,1,2.087,12Zm3.829,7.81a13.476,13.476,0,0,1,7.6-6.027,39.137,39.137,0,0,1,2.043,7.46A9.824,9.824,0,0,1,5.916,19.81Zm11.586.43a41.1,41.1,0,0,0-1.92-6.9,19.966,19.966,0,0,1,6.2.2,9.923,9.923,0,0,1-4.279,6.7Z"/></svg>