<svg width="640" height="427" viewBox="0 0 640 427" fill="none" xmlns="http://www.w3.org/2000/svg">
<rect width="640" height="427" fill="#F8FAFB"/>
<g clip-path="url(#clip0)">
<path d="M496.859 215.133C496.859 203.698 505.491 195.715 516.929 195.715C528.367 195.715 537 203.806 537 215.133C537 226.352 528.367 234.55 516.929 234.55C505.491 234.55 496.859 226.352 496.859 215.133ZM525.562 215.133C525.562 209.739 522.217 205.855 516.929 205.855C511.642 205.855 508.297 209.739 508.297 215.133C508.297 220.527 511.642 224.41 516.929 224.41C522.217 224.41 525.562 220.527 525.562 215.133ZM489.305 206.071C490.061 207.581 490.384 209.2 490.384 210.926C490.384 215.133 488.226 218.801 484.773 221.821C489.521 224.194 492.326 229.588 492.326 234.874C492.326 244.69 484.449 251.163 472.472 251.163C460.494 251.163 452.617 244.69 452.617 234.874C452.617 229.588 455.422 224.194 460.17 221.821C456.61 218.801 454.559 215.133 454.559 210.926C454.559 202.403 461.25 196.039 471.825 196.039C478.083 196.039 479.917 197.118 483.478 197.118C485.852 197.118 487.471 196.794 490.384 195.284C491.355 194.744 492.11 194.529 492.759 194.529C494.161 194.529 494.916 195.931 494.916 197.765C495.024 201.541 493.19 204.669 489.305 206.071ZM481.104 234.55C481.104 230.127 477.759 227.107 472.472 227.107C467.185 227.107 463.839 230.127 463.839 234.55C463.839 238.757 467.508 241.994 472.472 241.994C477.435 241.994 481.104 238.65 481.104 234.55ZM465.566 211.573C465.566 215.241 468.695 218.261 472.472 218.261C476.356 218.261 479.378 215.241 479.378 211.573C479.378 207.581 476.572 204.885 472.472 204.885C468.371 204.993 465.566 207.689 465.566 211.573ZM447.437 215.888V229.48C447.437 232.069 446.467 233.256 443.66 233.256H439.884C437.078 233.256 436.107 232.177 436.107 229.48V216.211C436.107 212.867 435.568 210.494 434.381 208.876C433.086 207.258 431.143 206.395 428.661 206.395C426.288 206.395 424.13 207.258 422.726 208.876C421.432 210.386 420.569 212.867 420.569 216.104V229.372C420.569 232.177 419.49 233.148 416.792 233.148H413.015C410.425 233.148 409.239 232.177 409.239 229.372V198.952C409.239 197.226 410.102 196.363 411.397 196.363C413.339 196.363 416.037 197.981 418.086 201.109C421.108 197.549 425.748 195.715 430.28 195.715C435.783 195.715 440.208 197.657 443.121 201.001C445.927 204.345 447.437 208.66 447.437 215.888ZM388.521 185.251C388.521 181.799 391.326 179.103 394.995 179.103C398.448 179.103 401.469 181.799 401.469 185.251C401.469 188.596 398.448 191.4 394.995 191.4C391.326 191.4 388.521 188.596 388.521 185.251ZM389.276 229.48V200.893C389.276 198.304 390.247 197.118 393.052 197.118H396.829C399.635 197.118 400.606 198.196 400.606 200.893V229.48C400.606 232.069 399.635 233.256 396.829 233.256H393.052C390.247 233.148 389.276 232.069 389.276 229.48ZM369.313 229.48V193.558C369.313 184.604 374.385 179.426 378.485 179.426C379.78 179.426 380.643 180.289 380.643 182.015V229.48C380.643 232.285 379.564 233.256 376.867 233.256H373.09C370.5 233.148 369.313 232.177 369.313 229.48ZM322.59 215.133C322.59 203.698 331.222 195.715 342.66 195.715C354.098 195.715 362.731 203.806 362.731 215.133C362.731 226.352 354.098 234.55 342.66 234.55C331.222 234.55 322.59 226.352 322.59 215.133ZM351.4 215.133C351.4 209.739 348.055 205.855 342.768 205.855C337.48 205.855 334.136 209.739 334.136 215.133C334.136 220.527 337.48 224.41 342.768 224.41C348.055 224.41 351.4 220.527 351.4 215.133ZM316.871 200.893V231.422C316.871 233.148 316.007 234.011 314.713 234.011C312.77 234.011 310.073 232.393 308.13 229.372C305.324 232.716 301.008 234.766 296.152 234.766C291.297 234.766 287.412 233.04 284.499 230.343C281.153 227.107 279.319 222.037 279.319 214.809V200.893C279.319 198.304 280.29 197.118 283.096 197.118H286.872C289.678 197.118 290.649 198.196 290.649 200.893V213.73C290.649 218.045 291.405 220.419 292.807 221.929C293.995 223.223 295.721 223.871 297.879 223.871C300.037 223.871 302.087 223.008 303.275 221.605C304.677 220.095 305.433 217.614 305.433 214.054V200.893C305.433 198.089 306.512 197.118 309.209 197.118H312.986C315.683 197.118 316.871 198.089 316.871 200.893ZM271.55 182.015V231.422C271.55 233.148 270.687 234.011 269.391 234.011C267.449 234.011 264.752 232.393 262.809 229.372C260.435 232.177 255.58 234.658 249.969 234.658C238.747 234.658 231.193 226.352 231.193 215.241C231.193 204.237 238.854 195.823 249.969 195.823C254.069 195.823 257.63 197.118 260.328 198.952V193.666C260.328 184.712 265.399 179.534 269.5 179.534C270.794 179.426 271.55 180.289 271.55 182.015ZM260.22 215.133C260.22 209.523 256.335 205.855 251.479 205.855C246.515 205.855 242.631 209.523 242.631 215.133C242.631 220.742 246.515 224.41 251.479 224.41C256.335 224.41 260.22 220.742 260.22 215.133Z" fill="#58CC02"/>
<path d="M136.667 255.154C137.638 252.889 140.228 251.81 142.494 252.781L148.968 255.477C151.234 256.449 152.313 259.037 151.342 261.303C150.371 263.569 147.781 264.647 145.515 263.676L139.041 260.979C136.775 260.009 135.696 257.42 136.667 255.154Z" fill="#F49000"/>
<path d="M209.503 228.725C207.345 227.646 204.648 228.509 203.569 230.667L200.332 236.923C199.253 239.081 200.116 241.778 202.274 242.857C204.432 243.935 207.13 243.072 208.209 240.915L211.446 234.658C212.525 232.501 211.662 229.804 209.503 228.725Z" fill="#F49000"/>
<path d="M209.828 177.7C209.072 175.003 205.943 173.925 203.677 175.435L189.002 185.359L184.038 171.659C183.499 170.149 182.743 168.855 181.664 167.668C177.24 163.029 169.902 162.814 165.262 167.129C158.356 173.601 153.285 177.485 150.155 178.563C147.026 179.75 140.552 180.074 130.84 179.534C129.329 179.426 127.819 179.642 126.308 180.289C120.265 182.447 117.244 189.027 119.402 195.068L124.474 208.876L106.669 210.71C103.971 211.034 102.245 213.946 103.432 216.427C108.719 228.401 121.129 235.737 134.509 234.55C142.818 248.359 159.975 254.939 175.729 249.221C191.483 243.504 200.44 227.431 197.85 211.465C208.749 203.806 213.389 190.322 209.828 177.7Z" fill="#58CC02"/>
<path d="M187.383 193.126L184.578 185.359C182.743 180.505 178.319 177.376 173.463 176.945C172.923 175.974 172.168 175.003 171.305 174.248C170.873 173.817 169.902 174.032 169.578 174.787L168.391 177.592H168.283C167.744 176.082 166.881 174.572 165.478 173.493C165.046 172.954 164.075 173.277 163.751 174.032L158.356 187.193C156.198 190.106 152.205 191.508 148.644 190.537L136.127 184.065C135.48 183.633 134.832 183.957 134.617 184.82C134.293 186.546 134.617 188.272 135.264 189.89H135.156L132.243 188.38C131.487 187.948 130.624 188.38 130.516 189.243C130.3 190.537 130.408 191.832 130.732 193.126C127.711 196.578 126.524 201.433 128.25 206.071L131.056 213.838C133.538 220.526 140.875 223.87 147.565 221.497L148.537 221.174C153.5 219.34 156.63 214.809 156.953 209.847C160.838 208.444 163.536 207.473 165.262 206.826C168.715 210.278 174.002 211.681 178.858 209.955L179.722 209.631C186.412 207.15 189.757 199.814 187.383 193.126Z" fill="#89E219"/>
<path d="M158.572 201.756C161.054 200.893 163.859 202.188 164.831 204.669L167.636 212.22C168.499 214.701 167.204 217.506 164.723 218.477C162.241 219.34 159.435 218.045 158.464 215.564L155.658 208.013C154.795 205.424 156.09 202.619 158.572 201.756Z" fill="#F49000"/>
<path d="M159.219 203.482C161.161 202.727 163.32 203.806 164.075 205.748L165.909 210.818C166.665 212.759 165.586 214.917 163.643 215.672C161.701 216.427 159.543 215.348 158.788 213.407L156.953 208.337C156.306 206.395 157.277 204.237 159.219 203.482Z" fill="#B66E28"/>
<path d="M153.716 207.905C153.176 204.777 155.011 201.648 158.356 200.354C161.269 199.275 164.83 200.57 166.341 203.267L166.449 203.59L160.514 207.042L153.824 208.229L153.716 207.905Z" fill="#FFC200"/>
<path d="M157.385 204.021C157.061 204.021 156.845 203.914 156.63 203.698C156.306 203.266 156.306 202.727 156.738 202.295C157.709 201.432 158.896 201.109 160.191 201.109C160.73 201.109 161.162 201.54 161.162 202.08C161.162 202.619 160.73 203.051 160.191 203.051C159.327 203.051 158.68 203.266 158.032 203.806C157.817 203.914 157.601 204.021 157.385 204.021Z" fill="#FFDE00"/>
<path d="M182.743 192.371L181.232 188.272C179.506 183.418 174.003 180.829 169.147 182.662C164.291 184.496 161.701 189.89 163.536 194.744L165.478 200.03C166.017 201.54 166.989 202.835 168.068 203.914C173.247 199.059 178.211 195.284 182.743 192.371Z" fill="white"/>
<path d="M152.313 209.631C152.529 208.121 152.421 206.503 151.774 204.992L149.831 199.706C148.105 194.852 142.602 192.263 137.746 194.097C132.89 195.931 130.3 201.325 132.135 206.179L133.645 210.17C138.933 209.415 145.299 209.092 152.313 209.631Z" fill="white"/>
<path d="M140.12 209.523C142.601 209.415 145.299 209.307 148.105 209.415C148.644 208.337 148.752 207.15 148.32 205.963L146.702 201.433C145.839 199.059 143.249 197.873 140.983 198.736C140.335 198.952 139.796 199.275 139.364 199.707C140.12 200.03 140.659 200.57 140.983 201.433C141.522 202.943 140.767 204.561 139.256 205.1C139.04 205.208 138.825 205.208 138.609 205.208L139.904 208.984C140.012 209.2 140.12 209.307 140.12 209.523Z" fill="#122431"/>
<path d="M171.089 201.217C173.139 199.383 175.189 197.765 177.132 196.255C177.132 196.039 177.024 195.715 176.916 195.5L175.297 190.969C174.434 188.596 171.844 187.409 169.578 188.272C168.823 188.596 168.175 189.027 167.744 189.566C168.391 189.89 168.931 190.429 169.146 191.184C169.686 192.695 168.931 194.313 167.42 194.852C167.312 194.852 167.312 194.852 167.204 194.852L168.499 198.52C168.931 199.814 169.902 200.785 171.089 201.217Z" fill="#122431"/>
<path d="M156.306 230.451L164.399 227.538C164.83 227.43 165.262 227.646 165.262 228.078C165.262 230.235 163.859 232.177 161.701 232.932C159.543 233.687 157.169 233.148 155.874 231.422C155.658 231.098 155.874 230.559 156.306 230.451Z" fill="#89E219"/>
<path d="M170.441 225.273L178.534 222.36C178.966 222.252 179.397 222.468 179.397 222.9C179.397 225.057 177.995 226.999 175.837 227.754C173.678 228.509 171.304 227.97 170.01 226.244C169.902 225.92 170.01 225.381 170.441 225.273Z" fill="#89E219"/>
<path d="M165.909 234.658L174.002 231.745C174.434 231.637 174.866 231.853 174.866 232.285C174.866 234.442 173.463 236.384 171.305 237.139C169.147 237.894 166.773 237.355 165.478 235.629C165.262 235.305 165.478 234.874 165.909 234.658Z" fill="#89E219"/>
</g>
<defs>
<clipPath id="clip0">
<rect width="434" height="100" fill="white" transform="translate(103 164)"/>
</clipPath>
</defs>
</svg>
