<svg xmlns="http://www.w3.org/2000/svg" width="24" height="18.053" viewBox="0 0 24 18.053"><defs><style>.a{fill:#fff;fill-rule:evenodd;}</style></defs><path class="a" d="M2.846,6.683a.856.856,0,0,0-.3-.743L.3,3.382V3H7.261l5.378,11.176L17.367,3H24v.382L22.084,5.122a.519.519,0,0,0-.213.51v12.79a.518.518,0,0,0,.213.509l1.871,1.741v.382H14.543v-.382l1.939-1.783c.19-.18.19-.233.19-.509V8.042l-5.389,12.97h-.728L4.28,8.042v8.693a1.161,1.161,0,0,0,.347,1l2.521,2.9v.383H0v-.383l2.521-2.9a1.116,1.116,0,0,0,.325-1V6.683Z" transform="translate(0 -3)"/></svg>